<svg width="54" height="50" viewBox="0 0 54 50" fill="none" xmlns="http://www.w3.org/2000/svg">
<path d="M52.7918 0H10.2387C9.71649 0 9.29309 0.373124 9.29309 0.833332V13.3333H11.1843V1.66666H51.8462V47.4999C51.8553 47.9381 51.4716 48.3052 50.9753 48.3332C50.8939 48.3332 50.8126 48.3274 50.7313 48.3257C50.5639 48.3216 50.3965 48.3182 50.232 48.3032C50.2178 48.3032 50.2046 48.3032 50.1904 48.2982C47.102 48.0007 44.6624 45.8529 44.3219 43.1316C44.3219 43.1199 44.3171 43.1074 44.3152 43.0957C44.2923 42.8977 44.281 42.6989 44.2812 42.4999V40.8333C44.2812 40.373 43.8578 39.9999 43.3356 39.9999H11.1843V24.9999H9.29309V39.9999H1.7281C1.20587 39.9999 0.782471 40.373 0.782471 40.8333V42.4999C0.787672 46.6401 4.59499 49.9953 9.29309 49.9999H50.9951C52.5296 49.9645 53.7493 48.8526 53.7374 47.4999V0.833332C53.7374 0.373124 53.314 0 52.7918 0ZM9.29309 48.3332C5.63908 48.3296 2.67786 45.72 2.67372 42.4999V41.6666H42.3899V42.4999C42.3912 42.7747 42.4092 43.0493 42.4438 43.3224C42.4524 43.3949 42.4684 43.4649 42.4798 43.5366C42.511 43.7382 42.5488 43.9391 42.5989 44.1366C42.6159 44.2057 42.6377 44.2741 42.6576 44.3432C42.7152 44.5441 42.7805 44.7416 42.8561 44.9366C42.8779 44.9924 42.9006 45.0474 42.9242 45.1032C43.0103 45.3099 43.1077 45.5116 43.2145 45.7107C43.2372 45.7516 43.258 45.7941 43.2807 45.8316C43.3993 46.0427 43.5294 46.2479 43.6713 46.4474C43.6902 46.4741 43.7072 46.5016 43.7261 46.5307C43.8802 46.7436 44.0467 46.9494 44.2245 47.1474L44.2547 47.1832C44.4611 47.4117 44.6821 47.6295 44.9167 47.8357C45.1203 48.0135 45.3314 48.1802 45.5502 48.3357L9.29309 48.3332Z" fill="white"/>
</svg>
